<?xml version="1.0"?>
<svg version="1.1" xmlns="http://www.w3.org/2000/svg" width="500" height="200" style=""><path fill="#1984d1" d="M17.783203125,91.2841796875q-0.09765625-1.2939453125,0.2197265625-2.44140625t1.1962890625-1.904296875t2.978515625-0.7568359375q0.48828125,0,1.1962890625,0.09765625t1.416015625,0.3173828125t1.1474609375,0.6103515625t0.439453125,1.07421875q0,1.806640625,0.1220703125,4.7607421875t0.3173828125,6.15234375t0.3662109375,6.25t0.3173828125,4.9560546875q3.80859375-0.1953125,7.666015625-0.1953125t7.6171875-0.1953125l6.73828125-0.1953125l0-4.833984375q0-8.10546875-0.3173828125-16.2353515625t-1.0986328125-16.2353515625q0-0.5859375,0.48828125-0.9521484375t1.1474609375-0.5615234375t1.3671875-0.244140625t1.0986328125-0.048828125q1.123046875,0,2.4169921875,0.341796875t1.4892578125,1.46484375l0.29296875,2.099609375q1.220703125,8.7890625,1.66015625,17.3828125t0.634765625,17.1875q0.5859375,0.09765625,1.2451171875,0.3173828125t1.3427734375,0.4150390625q0.48828125,0.1953125,1.3916015625,0.5859375t0.9033203125,1.220703125q0,0.78125-0.68359375,1.220703125t-1.5380859375,0.6591796875t-1.66015625,0.2685546875t-1.0009765625,0.048828125q0.09765625,3.61328125,0.09765625,7.2021484375l0,7.2021484375l0,15.771484375l0,8.7890625q0,0.5859375-0.5615234375,1.0498046875t-1.3427734375,0.7568359375t-1.6357421875,0.390625t-1.5380859375,0.09765625t-1.611328125-0.09765625t-1.66015625-0.390625t-1.2939453125-0.732421875t-0.5615234375-1.07421875l0-2.099609375q0.1953125-9.27734375,0.439453125-18.3837890625t0.48828125-18.2861328125q-5.322265625,0.1953125-10.8154296875,0.244140625t-10.9130859375,0.244140625q0.5859375,6.884765625,1.3427734375,13.7451171875t1.5869140625,13.7451171875q0,0.5859375-0.5615234375,1.0498046875t-1.318359375,0.7568359375t-1.611328125,0.390625t-1.5380859375,0.09765625q-1.416015625,0-3.1005859375-0.48828125t-1.8798828125-1.806640625q-0.5859375-5.17578125-1.0986328125-11.42578125t-0.9033203125-12.7685546875t-0.6103515625-12.7685546875t-0.2197265625-11.328125q0-1.220703125-0.09765625-2.5146484375z M73.57763671875,131.787109375q0-3.3203125,0.9033203125-6.396484375t2.7099609375-5.4931640625t4.5166015625-3.857421875t6.2744140625-1.4404296875q2.197265625,0,4.8583984375,0.6591796875t5.0048828125,1.953125t3.90625,3.2958984375t1.5625,4.58984375q0,1.220703125-0.4150390625,1.85546875t-1.6845703125,0.634765625l-0.537109375-0.09765625q1.416015625,3.80859375,2.44140625,7.8125t2.001953125,8.0078125q0.390625,0.78125,0.5859375,1.3916015625t0.1953125,1.1962890625q0,0.78125-0.439453125,1.2939453125t-1.1474609375,0.7568359375t-1.46484375,0.341796875t-1.3427734375,0.09765625q-2.099609375,0-3.1494140625-0.732421875t-1.513671875-2.001953125t-0.5615234375-2.8564453125t-0.390625-3.1982421875q-0.5859375,1.904296875-1.5380859375,3.7109375t-2.24609375,3.2470703125t-3.0517578125,2.294921875t-3.955078125,0.8544921875q-3.22265625,0-5.419921875-1.85546875t-3.5400390625-4.5654296875t-1.953125-5.7861328125t-0.6103515625-5.712890625z M80.51123046875,131.103515625q0,1.806640625,0.244140625,3.80859375t0.8056640625,3.955078125t1.4404296875,3.6865234375t2.197265625,3.0517578125q2.392578125-2.587890625,3.5400390625-6.298828125t2.05078125-7.1533203125t2.05078125-5.908203125t3.5400390625-2.4658203125q1.513671875,0,2.5390625,0.537109375q-0.48828125-1.220703125-1.611328125-2.3681640625t-2.5146484375-2.099609375t-2.880859375-1.5625t-2.8076171875-0.6103515625q-0.390625,0-0.9033203125,0.1220703125t-0.8056640625,0.0244140625q-2.001953125,0.5859375-3.2958984375,2.0263671875t-2.099609375,3.3935546875t-1.1474609375,4.00390625t-0.341796875,3.857421875z M115.8955078125,117.578125q0-3.41796875,0.3173828125-8.88671875t0.7568359375-11.279296875t1.0986328125-11.0107421875t1.4404296875-7.9833984375q0.29296875-1.220703125,1.3916015625-1.46484375t2.2216796875-0.244140625q1.513671875,0,2.6123046875,0.537109375t1.0986328125,2.34375q0,8.88671875-1.0986328125,17.7978515625t-1.1962890625,17.7978515625q1.513671875-2.294921875,3.90625-3.4423828125t5.078125-1.1474609375q3.7109375,0,6.396484375,1.513671875t4.345703125,3.90625t2.4658203125,5.5419921875t0.8056640625,6.4208984375q0,1.806640625-0.3662109375,4.5166015625t-1.0986328125,5.712890625t-1.85546875,5.95703125t-2.6611328125,5.2978515625t-3.5400390625,3.7841796875t-4.39453125,1.4404296875q-0.48828125,0-1.2939453125-0.146484375t-1.611328125-0.439453125t-1.3427734375-0.7568359375t-0.537109375-1.1474609375q0-0.78125,0.9521484375-1.0986328125t1.5380859375-0.3173828125q2.197265625-0.9765625,3.90625-4.0771484375t2.8564453125-6.8115234375t1.7333984375-7.3486328125t0.5859375-5.9326171875q0-1.318359375-0.390625-3.515625t-1.1962890625-4.345703125t-2.197265625-3.7109375t-3.2958984375-1.5625q-2.294921875,0-3.662109375,2.3681640625t-2.1484375,5.517578125t-1.0498046875,6.494140625t-0.2685546875,5.2490234375q0,1.220703125,0.4150390625,2.4169921875t0.9521484375,2.392578125t0.9521484375,2.44140625t0.4150390625,2.4658203125q0,0.5859375-0.5126953125,0.9765625t-1.1962890625,0.634765625t-1.4404296875,0.3173828125t-1.1474609375,0.0732421875q-2.783203125,0-3.857421875-1.318359375t-1.85546875-3.7109375q-1.708984375-5.419921875-2.3681640625-11.0107421875t-0.6591796875-11.2060546875z M157.52978515625,130.615234375q0-4.4921875,1.0498046875-8.8134765625t1.7822265625-8.6181640625q0.1953125-1.123046875,1.5380859375-1.3916015625t2.2705078125-0.2685546875q1.611328125,0,2.587890625,0.48828125q0.390625,0.1953125,0.732421875,0.439453125t0.341796875,0.634765625q0,4.19921875-1.0009765625,8.203125t-1.0009765625,8.49609375q0,1.513671875,0.2197265625,2.8564453125t0.4150390625,2.6611328125l0.29296875,1.416015625q0,0.390625,0.048828125,0.68359375t0.146484375,0.68359375q0,0.87890625-1.2451171875,1.1962890625t-2.1728515625,0.3173828125q-1.416015625,0-2.6123046875-0.5615234375t-1.8798828125-1.9287109375l-0.68359375-1.416015625q-0.5859375-1.123046875-0.5859375-2.5146484375t-0.244140625-2.5634765625z M160.65478515625,101.220703125l0-0.927734375q0-2.294921875,1.1474609375-4.1015625t3.4423828125-1.806640625q0.29296875,0,0.5615234375,0.048828125t0.5615234375,0.048828125q0.5859375,0.09765625,1.5380859375,0.4638671875t0.9521484375,1.1474609375l0,0.09765625q-0.1953125,0.390625-0.244140625,0.8056640625t-0.244140625,0.7080078125l0.09765625-0.09765625q-0.5859375,1.513671875-0.9521484375,2.44140625t-0.8056640625,1.4892578125t-1.0986328125,0.8056640625t-1.8798828125,0.244140625q-0.1953125,0-0.68359375-0.048828125t-1.0498046875-0.1953125t-0.9521484375-0.390625t-0.390625-0.732421875z M176.849609375,100.78125q0-0.68359375,1.46484375-1.171875t3.3203125-0.8056640625t3.5888671875-0.4638671875t2.3681640625-0.244140625q0-1.318359375,0.09765625-2.6611328125t0.537109375-2.392578125t1.3916015625-1.6845703125t2.6611328125-0.634765625q1.416015625,0,2.1484375,0.341796875t1.5625,1.416015625q0.1953125,0.5859375,0.1953125,1.123046875l0,1.6357421875t-0.09765625,1.6845703125q1.806640625-0.1953125,3.5888671875-0.4638671875t3.5888671875-0.2685546875q1.318359375,0,1.806640625,0.048828125t0.9765625,1.171875q0.390625,1.123046875-0.9521484375,1.708984375t-3.22265625,0.87890625t-3.7353515625,0.439453125t-2.24609375,0.146484375q-0.5859375,8.3984375-1.1962890625,16.650390625t-0.6103515625,16.748046875q0,3.80859375,0.244140625,7.861328125t1.3671875,7.666015625q0.29296875,1.123046875,0.9765625,2.099609375t0.68359375,2.099609375q0,0.68359375-0.537109375,1.07421875t-1.2939453125,0.6591796875t-1.513671875,0.3173828125t-1.2451171875,0.048828125q-3.076171875,0-4.6875-2.294921875t-2.3193359375-5.4931640625t-0.7568359375-6.5673828125t-0.048828125-5.46875q0-4.296875,0.1708984375-8.7890625t0.4150390625-8.88671875t0.68359375-8.59375t1.025390625-7.8125q-1.708984375,0.1953125-3.3447265625,0.439453125t-3.3447265625,0.244140625q-0.390625,0-1.0498046875-0.048828125t-1.2451171875-0.244140625t-1.0009765625-0.537109375t-0.4150390625-0.9765625z M230.2353515625,80.517578125q0-0.68359375,0.9521484375-1.0498046875t1.2451171875-0.3662109375l1.806640625-0.29296875q1.806640625-0.29296875,3.662109375-0.5126953125t3.61328125-0.4150390625q6.201171875-0.78125,12.40234375-1.5380859375t12.5-0.7568359375q0.48828125,0,1.3427734375,0.048828125t1.708984375,0.2685546875t1.46484375,0.6103515625t0.6103515625,1.07421875q0,0.48828125-0.4638671875,0.8544921875t-1.0986328125,0.5615234375t-1.2939453125,0.244140625t-1.0498046875,0.048828125l-0.8544921875,0t-0.8544921875-0.1953125q-2.587890625,0-5.1025390625,0.244140625t-5.1025390625,0.439453125q0.68359375,0.78125,0.732421875,2.197265625t0.09765625,2.44140625q0,17.28515625,0.244140625,34.375t0.439453125,34.521484375l0,0.09765625q-1.611328125,1.416015625-2.7587890625,1.806640625t-2.3193359375,0.390625q-1.123046875,0-2.2705078125-0.4150390625t-2.7587890625-1.7822265625l0-0.09765625l0.390625-38.330078125q0-3.80859375-0.09765625-8.3984375t-0.09765625-9.3017578125t0.146484375-9.1064453125t0.78125-7.666015625q-2.880859375,0.29296875-6.103515625,0.87890625q-2.783203125,0.48828125-5.322265625,0.48828125l-0.87890625,0q-0.1953125,0-1.1474609375,0.048828125t-1.953125-0.048828125t-1.806640625-0.390625t-0.8056640625-0.9765625z M278.51025390625,118.115234375q0-2.001953125,0.7080078125-3.369140625t3.0029296875-1.3671875q0.87890625,0,2.197265625,0.2685546875t1.513671875,1.3427734375q0.48828125,2.880859375,0.537109375,6.25t0.341796875,6.34765625q1.123046875-2.197265625,2.880859375-4.736328125t4.00390625-4.6875t4.8828125-3.564453125t5.37109375-1.416015625q0.1953125,0,0.732421875,0.146484375t1.0009765625,0.4150390625t0.5615234375,0.6103515625t-0.537109375,0.634765625q-0.1953125,0.5859375-0.830078125,0.7080078125t-1.123046875,0.1220703125q-0.29296875,0-0.927734375-0.244140625q-3.61328125,1.904296875-6.15234375,5.17578125t-4.150390625,7.2509765625t-2.34375,8.3984375t-0.732421875,8.6181640625q0,2.099609375-0.9521484375,2.5390625t-3.0517578125,0.439453125q-1.123046875,0-2.3681640625-0.244140625t-1.7333984375-1.5625q-0.87890625-2.783203125-1.4404296875-6.396484375t-0.8544921875-7.4462890625t-0.4150390625-7.5439453125t-0.1220703125-6.689453125z M313.2109375,131.787109375q0-3.3203125,0.9033203125-6.396484375t2.7099609375-5.4931640625t4.5166015625-3.857421875t6.2744140625-1.4404296875q2.197265625,0,4.8583984375,0.6591796875t5.0048828125,1.953125t3.90625,3.2958984375t1.5625,4.58984375q0,1.220703125-0.4150390625,1.85546875t-1.6845703125,0.634765625l-0.537109375-0.09765625q1.416015625,3.80859375,2.44140625,7.8125t2.001953125,8.0078125q0.390625,0.78125,0.5859375,1.3916015625t0.1953125,1.1962890625q0,0.78125-0.439453125,1.2939453125t-1.1474609375,0.7568359375t-1.46484375,0.341796875t-1.3427734375,0.09765625q-2.099609375,0-3.1494140625-0.732421875t-1.513671875-2.001953125t-0.5615234375-2.8564453125t-0.390625-3.1982421875q-0.5859375,1.904296875-1.5380859375,3.7109375t-2.24609375,3.2470703125t-3.0517578125,2.294921875t-3.955078125,0.8544921875q-3.22265625,0-5.419921875-1.85546875t-3.5400390625-4.5654296875t-1.953125-5.7861328125t-0.6103515625-5.712890625z M320.14453125,131.103515625q0,1.806640625,0.244140625,3.80859375t0.8056640625,3.955078125t1.4404296875,3.6865234375t2.197265625,3.0517578125q2.392578125-2.587890625,3.5400390625-6.298828125t2.05078125-7.1533203125t2.05078125-5.908203125t3.5400390625-2.4658203125q1.513671875,0,2.5390625,0.537109375q-0.48828125-1.220703125-1.611328125-2.3681640625t-2.5146484375-2.099609375t-2.880859375-1.5625t-2.8076171875-0.6103515625q-0.390625,0-0.9033203125,0.1220703125t-0.8056640625,0.0244140625q-2.001953125,0.5859375-3.2958984375,2.0263671875t-2.099609375,3.3935546875t-1.1474609375,4.00390625t-0.341796875,3.857421875z M355.52880859375,130.810546875q0-3.515625,0.9033203125-7.0556640625t2.8076171875-6.34765625t4.8583984375-4.5654296875t6.9580078125-1.7578125q1.708984375,0,3.759765625,0.4150390625t3.7841796875,1.318359375t2.9296875,2.34375t1.1962890625,3.5400390625q0,1.318359375-0.68359375,1.7578125t-1.806640625,0.439453125l-0.341796875-0.48828125t-0.9521484375-1.2451171875t-1.2939453125-1.611328125t-1.318359375-1.4404296875q-2.001953125-2.001953125-3.759765625-2.1484375l-0.390625,0q-1.46484375,0-2.734375,0.87890625q-1.416015625,1.07421875-2.5146484375,3.02734375t-1.8310546875,4.150390625t-1.1474609375,4.443359375t-0.4150390625,3.7109375q0,2.001953125,0.4638671875,4.5654296875t1.5625,4.8583984375t2.783203125,3.857421875t4.3212890625,1.5625q2.392578125,0,4.345703125-1.171875t3.7353515625-2.6123046875t3.4912109375-2.587890625t3.515625-1.1474609375q0.78125,0,1.5869140625,0.1953125t0.8056640625,1.025390625l0,0.29296875q-0.87890625,2.294921875-2.978515625,4.052734375t-4.7119140625,3.0517578125t-5.419921875,1.9287109375t-5.0048828125,0.634765625q-4.1015625,0-7.2021484375-1.3427734375t-5.1513671875-3.6865234375t-3.1005859375-5.6396484375t-1.0498046875-7.2021484375z M398.1396484375,151.611328125l1.025390625-1.220703125q-0.1953125-8.203125-0.439453125-16.357421875t-0.244140625-16.2109375q0-10.009765625,1.1962890625-19.3603515625t2.3681640625-19.1650390625q0.09765625-0.5859375,0.5615234375-0.9521484375t1.1474609375-0.6103515625t1.3916015625-0.341796875t1.2939453125-0.09765625q0.78125,0,1.953125,0.29296875t2.34375,1.708984375q0,0.48828125,0.0732421875,0.8544921875t0.0732421875,0.8544921875q0,3.7109375-1.0009765625,7.958984375t-1.3427734375,8.154296875q-0.390625,4.78515625-0.537109375,9.47265625t-0.146484375,9.521484375l0.09765625,4.296875q0.9765625-1.220703125,2.783203125-3.125t3.90625-3.6865234375t4.19921875-3.0517578125t3.80859375-1.26953125q2.587890625,0,3.5888671875,1.46484375t1.0009765625,3.857421875q0,2.197265625-0.9521484375,4.58984375t-2.490234375,4.6630859375t-3.4912109375,4.0771484375t-3.857421875,2.685546875q2.587890625,3.22265625,5.2978515625,6.15234375t5.9326171875,5.517578125l0,1.123046875q-0.09765625,0.48828125-0.6103515625,0.732421875t-1.123046875,0.390625t-1.1962890625,0.2197265625t-0.9765625,0.0732421875q-2.392578125,0-4.6142578125-1.416015625t-4.150390625-3.466796875t-3.6376953125-4.345703125t-3.125-4.00390625q0.29296875,5.615234375,0.6591796875,11.2060546875t0.3662109375,11.2060546875q0,0.68359375-0.6103515625,1.1474609375t-1.416015625,0.7080078125t-1.6357421875,0.341796875t-1.3671875,0.09765625q-2.880859375,0-4.0771484375-1.0498046875t-2.0263671875-3.6376953125z M408.1494140625,128.61328125q1.220703125,0,2.9052734375-1.0498046875t3.4912109375-2.6123046875t3.369140625-3.2958984375t2.5146484375-3.2958984375t0.9521484375-2.5146484375t-1.318359375-0.8544921875q-0.48828125,0-2.001953125,1.416015625t-3.369140625,3.466796875t-3.7109375,4.443359375t-2.83203125,4.296875z M437.67431640625,133.7890625q0-3.41796875,0.7568359375-8.056640625t2.5634765625-8.7890625t4.7607421875-7.0556640625t7.4462890625-2.9052734375q4.19921875,0,6.298828125,2.4169921875t2.099609375,6.5185546875q0,2.685546875-1.0009765625,5.8837890625t-2.8564453125,6.0546875t-4.39453125,4.7607421875t-5.6640625,1.904296875l-1.26953125-0.09765625q0,1.318359375,0.390625,3.5400390625t1.1474609375,4.4189453125t1.953125,3.857421875t2.9052734375,1.66015625q2.490234375,0,4.78515625-2.001953125t4.345703125-4.443359375t3.80859375-4.443359375t3.22265625-2.001953125q0.78125,0,1.611328125,0.244140625t0.927734375,1.3671875q0,0.68359375-0.3662109375,1.123046875t-0.6591796875,0.9765625q-1.513671875,2.587890625-3.2958984375,4.931640625t-4.0283203125,4.248046875t-4.9072265625,3.0029296875t-5.8837890625,1.0986328125q-4.19921875,0-6.982421875-1.4892578125t-4.4921875-4.00390625t-2.4658203125-5.810546875t-0.7568359375-6.9091796875z M446.41455078125,130.078125l1.3671875,1.220703125q0.9765625,0.87890625,1.953125,0.390625t1.7578125-1.7822265625t1.4404296875-3.1982421875t1.171875-3.90625t0.7568359375-3.90625t0.244140625-3.173828125l0-1.66015625t-0.146484375-1.7578125t-0.5126953125-1.3916015625t-1.1474609375-0.7080078125q-0.244140625-0.048828125-0.439453125-0.048828125q-1.66015625,0-2.83203125,2.099609375q-1.26953125,2.34375-2.05078125,5.6884765625t-1.123046875,6.8603515625t-0.439453125,5.2734375z M478.478515625,118.115234375q0-2.001953125,0.7080078125-3.369140625t3.0029296875-1.3671875q0.87890625,0,2.197265625,0.2685546875t1.513671875,1.3427734375q0.48828125,2.880859375,0.537109375,6.25t0.341796875,6.34765625q1.123046875-2.197265625,2.880859375-4.736328125t4.00390625-4.6875t4.8828125-3.564453125t5.37109375-1.416015625q0.1953125,0,0.732421875,0.146484375t1.0009765625,0.4150390625t0.5615234375,0.6103515625t-0.537109375,0.634765625q-0.1953125,0.5859375-0.830078125,0.7080078125t-1.123046875,0.1220703125q-0.29296875,0-0.927734375-0.244140625q-3.61328125,1.904296875-6.15234375,5.17578125t-4.150390625,7.2509765625t-2.34375,8.3984375t-0.732421875,8.6181640625q0,2.099609375-0.9521484375,2.5390625t-3.0517578125,0.439453125q-1.123046875,0-2.3681640625-0.244140625t-1.7333984375-1.5625q-0.87890625-2.783203125-1.4404296875-6.396484375t-0.8544921875-7.4462890625t-0.4150390625-7.5439453125t-0.1220703125-6.689453125z"/><path fill="#" d=""/></svg>
